# File created by Blade
# Date/Time:  Tue Apr 07 20:17:56 2015
# Frame Rate: 120.000 fps
#------------------------------------------------------
:FULLY-SPECIFIED
:DEGREES
1855
root 2.973718 32.789900 -7.607629 13.417379 -1.787506 -0.733051
Spine -15.768654 -3.535590 -0.536693
Head 15.713035 1.761016 0.545727
LeftShoulder -21.991170 39.899451 21.784511
LeftArm 52.343931 -57.428631 -57.039892
LeftForeArm 7.776026 0.000000 -1.981079
LeftHand 6.106391 -0.000000 1.787702
LeftHandThumb1 -26.253704 0.000000 33.147579
RightShoulder -9.273291 7.902876 -34.153736
RightArm 10.010509 17.218631 35.449187
RightForeArm -12.282936 -0.000000 1.824717
RightHand 2.181177 0.000000 0.153635
RightHandThumb1 -24.326973 -0.000000 -32.862282
LeftUpLeg -5.133207 -5.780706 1.542026
LeftLeg -4.157129 -0.000000 0.000000
LeftFoot -6.574871 8.763549 -17.217973
LeftToeBase -8.074740 -0.000000 0.000000
RightUpLeg -7.192774 -2.198260 2.991235
RightLeg -4.457905 -0.000000 0.000000
RightFoot -5.427328 -5.016302 6.234837
RightToeBase 3.787246 -0.000000 -0.000000
1856
root 2.970685 32.791228 -7.609819 13.427464 -1.819082 -0.734750
Spine -15.779327 -3.510066 -0.542952
Head 15.701413 1.736488 0.558449
LeftShoulder -21.977277 39.895860 21.809559
LeftArm 52.290957 -57.421665 -56.984531
LeftForeArm 7.815361 -0.000000 -1.994952
LeftHand 6.102547 -0.000000 1.770400
LeftHandThumb1 -26.253704 0.000000 33.147579
RightShoulder -9.279535 7.889790 -34.168246
RightArm 10.025769 17.225967 35.451231
RightForeArm -12.273435 0.000000 1.791978
RightHand 2.334021 -0.000000 0.046917
RightHandThumb1 -24.326973 -0.000000 -32.862282
LeftUpLeg -5.141087 -5.744747 1.541715
LeftLeg -4.164532 -0.000000 0.000000
LeftFoot -6.560436 8.765324 -17.226224
LeftToeBase -8.114050 -0.000000 0.000000
RightUpLeg -7.213695 -2.195784 2.997638
RightLeg -4.445857 -0.000000 0.000000
RightFoot -5.417530 -4.995492 6.241614
RightToeBase 3.768375 -0.000000 -0.000000
1857
root 2.967652 32.792480 -7.612817 13.434143 -1.843127 -0.739220
Spine -15.781170 -3.496068 -0.537587
Head 15.684950 1.711946 0.575914
LeftShoulder -21.962047 39.876790 21.818043
LeftArm 52.173163 -57.409634 -56.851451
LeftForeArm 7.842154 -0.000000 -2.006260
LeftHand 6.065117 -0.000000 1.747677
LeftHandThumb1 -26.253704 0.000000 33.147579
RightShoulder -9.284413 7.895149 -34.185741
RightArm 10.037720 17.205518 35.442140
RightForeArm -12.278263 -0.000000 1.767111
RightHand 2.221332 0.000000 0.130468
RightHandThumb1 -24.326973 -0.000000 -32.862282
LeftUpLeg -5.143787 -5.736863 1.547381
LeftLeg -4.176650 -0.000000 0.000000
LeftFoot -6.565453 8.792564 -17.219788
LeftToeBase -8.044509 -0.000000 0.000000
RightUpLeg -7.229241 -2.194202 3.006643
RightLeg -4.440077 -0.000000 0.000000
RightFoot -5.404050 -4.985122 6.216162
RightToeBase 3.739146 -0.000000 -0.000000
1858
root 2.962582 32.793259 -7.616541 13.445911 -1.859553 -0.757554
Spine -15.786626 -3.488203 -0.525952
Head 15.664627 1.695371 0.594159
LeftShoulder -21.948965 39.885912 21.839136
LeftArm 52.139714 -57.445279 -56.827764
LeftForeArm 7.831043 -0.000000 -2.011343
LeftHand 6.078698 0.000000 1.710750
LeftHandThumb1 -26.253704 0.000000 33.147579
RightShoulder -9.284686 7.884419 -34.190402
RightArm 10.053181 17.183159 35.423391
RightForeArm -12.236607 0.000000 1.732920
RightHand 2.206095 -0.000000 0.141459
RightHandThumb1 -24.326973 -0.000000 -32.862282
LeftUpLeg -5.158193 -5.693947 1.556191
LeftLeg -4.180858 -0.000000 0.000000
LeftFoot -6.555195 8.849149 -17.122799
LeftToeBase -8.014089 -0.000000 0.000000
RightUpLeg -7.243988 -2.174904 3.033110
RightLeg -4.446332 -0.000000 0.000000
RightFoot -5.394744 -4.993092 6.219186
RightToeBase 3.802258 -0.000000 -0.000000
1859
root 2.961182 32.794354 -7.619942 13.456364 -1.875891 -0.758866
Spine -15.792030 -3.476380 -0.523794
Head 15.643305 1.684701 0.600682
LeftShoulder -21.938527 39.898529 21.845886
LeftArm 52.160957 -57.497263 -56.850785
LeftForeArm 7.847507 -0.000000 -2.034888
LeftHand 6.118067 -0.000000 1.691767
LeftHandThumb1 -26.253704 0.000000 33.147579
RightShoulder -9.285360 7.908323 -34.206531
RightArm 10.037186 17.192654 35.403220
RightForeArm -12.244243 0.000000 1.706437
RightHand 2.182453 -0.000000 0.140607
RightHandThumb1 -24.326973 -0.000000 -32.862282
LeftUpLeg -5.166007 -5.674396 1.555088
LeftLeg -4.199271 -0.000000 0.000000
LeftFoot -6.528031 8.868251 -17.101693
LeftToeBase -8.067606 -0.000000 0.000000
RightUpLeg -7.309801 -2.306054 3.068175
RightLeg -4.349579 -0.000000 0.000000
RightFoot -5.420668 -4.894114 6.153203
RightToeBase 3.763656 -0.000000 -0.000000
1860
root 2.960976 32.794699 -7.624004 13.469057 -1.900373 -0.728678
Spine -15.798435 -3.469327 -0.558582
Head 15.608994 1.680364 0.618535
LeftShoulder -21.905416 39.866990 21.887086
LeftArm 52.050849 -57.509963 -56.766325
LeftForeArm 7.794580 -0.000000 -2.038876
LeftHand 6.149442 -0.000000 1.735630
LeftHandThumb1 -26.253704 0.000000 33.147579
RightShoulder -9.287952 7.913146 -34.213040
RightArm 10.040767 17.192563 35.381431
RightForeArm -12.193447 -0.000000 1.671453
RightHand 2.184533 -0.000000 0.099692
RightHandThumb1 -24.326973 -0.000000 -32.862282
LeftUpLeg -5.187375 -5.662930 1.537740
LeftLeg -4.191133 -0.000000 0.000000
LeftFoot -6.515440 8.792591 -17.226690
LeftToeBase -8.066871 -0.000000 0.000000
RightUpLeg -7.293683 -2.188212 3.011281
RightLeg -4.424493 -0.000000 0.000000
RightFoot -5.395426 -4.947755 6.219411
RightToeBase 3.760422 -0.000000 -0.000000
